<?xml version="1.0" encoding="UTF-8" standalone="no"?>
<!-- Created with Inkscape (http://www.inkscape.org/) -->

<svg
   width="210mm"
   height="297mm"
   viewBox="0 0 210 297"
   version="1.1"
   id="svg8">

  


    <path
       style="fill:#000000;stroke-width:0.26458332"
       id="path9217"
       d="m 76.356074,183.55114 c 2.432016,-2.384 5.019559,-4.60439 7.522898,-6.91378 2.140635,-1.90978 4.385088,-3.70517 6.719914,-5.37182 0.359841,-0.22929 0.708784,-0.47665 1.079518,-0.68787 30.888846,-17.59846 0.08465,0.0995 2.004933,-1.06807 3.455292,-2.10081 6.990183,-4.06822 10.509463,-6.05996 1.2147,-0.54227 0.64416,-0.24294 1.71812,-0.88548 1.62831,-0.92294 3.53003,-1.0124 5.35691,-1.10476 2.10562,-0.0857 4.21355,-0.0615 6.32034,-0.0568 1.39537,0.12444 2.83875,-0.15253 4.22958,0.012 0.79494,0.0941 1.53583,0.40077 2.28254,0.66167 2.04337,0.86476 4.19373,1.26666 6.3881,1.47987 2.15697,0.13954 4.34641,-0.01 6.37729,0.8149 1.86309,0.91278 3.53294,2.17566 5.07613,3.55842 1.56669,1.1378 2.75857,2.66345 4.11304,4.016 1.44801,1.49822 2.85896,2.98828 4.4061,4.39092 2.05361,1.50493 3.40001,3.63798 5.03995,5.52463 1.11086,1.41206 2.52667,2.52642 3.85246,3.72722 0.69775,0.47852 1.21027,1.13591 1.84497,1.68982 0,0 -9.53883,5.91544 -9.53883,5.91544 v 0 c -0.61428,-0.5669 -1.17841,-1.18243 -1.84222,-1.69307 -1.36553,-1.22368 -2.80052,-2.4022 -3.91433,-3.86927 -1.55556,-1.89861 -2.91838,-3.93601 -4.94417,-5.39981 -1.58267,-1.40101 -2.97442,-2.95166 -4.4705,-4.43806 -1.30767,-1.3659 -2.54578,-2.79931 -4.06624,-3.94642 -1.46458,-1.26403 -3.02096,-2.4752 -4.83545,-3.18758 -2.03651,-0.53341 -4.14843,-0.39243 -6.22868,-0.62849 -2.23132,-0.29749 -4.3919,-0.83814 -6.49458,-1.65306 -2.08122,-0.53779 -4.19699,-0.38612 -6.33273,-0.39692 -2.09164,-0.003 -4.1863,-0.0136 -6.27413,0.13063 -1.79408,0.1828 -3.53277,0.49476 -5.075865,1.49575 -0.567118,0.28876 -2.244616,1.19934 -1.695532,0.87761 2.871602,-1.68258 11.541937,-6.63413 8.638247,-5.00754 -35.287027,19.76716 6.48636,-3.22144 -3.13942,1.69115 -2.353841,1.65369 -4.638484,3.38731 -6.826704,5.25635 -2.456567,2.29402 -4.967333,4.52829 -7.473514,6.76778 0,0 -10.327608,4.35861 -10.327608,4.35861 z"
       inkscape:connector-curvature="0" />
</svg>
